<svg width="42" height="42" viewBox="0 0 42 42" fill="none" xmlns="http://www.w3.org/2000/svg">
<path d="M28.321 23.3446L28.7479 23.3466L28.8897 22.9439C29.2077 22.0407 29.7979 21.2582 30.5789 20.7041C31.3599 20.15 32.2935 19.8516 33.2511 19.8499C34.1021 19.8484 34.9371 20.0808 35.6649 20.5219C36.3927 20.9629 36.9852 21.5955 37.3777 22.3506C37.7701 23.1057 37.9474 23.9542 37.8902 24.8032C37.833 25.6523 37.5434 26.4693 37.0532 27.1649C36.563 27.8605 35.8909 28.4079 35.1105 28.7473C34.3302 29.0867 33.4715 29.205 32.6284 29.0893C31.7853 28.9736 30.9903 28.6283 30.3302 28.0912C29.6701 27.5541 29.1704 26.8459 28.8857 26.0439L28.7447 25.6467L28.3232 25.6447C22.5535 25.6165 18.3048 25.3615 15.2217 23.7723L15.2184 23.7706C13.6009 22.9495 12.1525 21.8311 10.9489 20.474L9.90001 19.2914V20.8722V30.0719V30.4962L10.3 30.6376C11.3342 31.0032 12.2058 31.7227 12.7608 32.6688C13.3159 33.615 13.5185 34.7269 13.333 35.808C13.1476 36.8891 12.5858 37.8698 11.7472 38.5768C10.9085 39.2839 9.84692 39.6716 8.75001 39.6716C7.6531 39.6716 6.59149 39.2839 5.75284 38.5768C4.91418 37.8698 4.35247 36.8891 4.16698 35.808C3.98149 34.7269 4.18416 33.615 4.73918 32.6688C5.2942 31.7227 6.16583 31.0032 7.20001 30.6376L7.60001 30.4962V30.0719V13.6779V13.2546L7.20126 13.1127C6.17118 12.7459 5.30269 12.0289 4.74752 11.0869C4.19235 10.1449 3.98579 9.03781 4.16393 7.959C4.34206 6.88019 4.89356 5.89825 5.72209 5.18473C6.55062 4.47121 7.6035 4.07147 8.69681 4.05534C9.79011 4.03921 10.8543 4.40771 11.7035 5.09648C12.5528 5.78524 13.133 6.75048 13.3429 7.82357C13.5528 8.89665 13.379 10.0094 12.8518 10.9673C12.3247 11.9253 11.4777 12.6676 10.4589 13.0646L9.98713 13.2484L10.089 13.7444C10.442 15.462 11.1847 17.0756 12.2599 18.4608C13.3337 19.8441 14.7104 20.9627 16.2843 21.7305C17.6605 22.4397 19.3744 22.8313 21.3687 23.0533C23.3697 23.2761 25.6985 23.3324 28.321 23.3446ZM9.64932 32.8288L9.41971 33.3831L9.64931 32.8288C9.21991 32.6509 8.7474 32.6044 8.29155 32.6951C7.83569 32.7857 7.41696 33.0095 7.08831 33.3382L7.49889 33.7488L7.08831 33.3382C6.75966 33.6669 6.53584 34.0856 6.44516 34.5414C6.35449 34.9973 6.40103 35.4698 6.57889 35.8992C6.75676 36.3286 7.05796 36.6956 7.44442 36.9539C7.83088 37.2121 8.28523 37.3499 8.75001 37.3499C9.37327 37.3499 9.971 37.1023 10.4117 36.6616C10.8524 36.2209 11.1 35.6232 11.1 34.9999C11.1 34.5351 10.9622 34.0808 10.704 33.6943C10.4457 33.3079 10.0787 33.0067 9.64932 32.8288ZM7.44442 10.7039C7.83088 10.9621 8.28522 11.0999 8.75001 11.0999C9.37327 11.0999 9.971 10.8523 10.4117 10.4116C10.8524 9.97089 11.1 9.37316 11.1 8.7499C11.1 8.28511 10.9622 7.83077 10.704 7.44431C10.4457 7.05786 10.0787 6.75665 9.64932 6.57878C9.21991 6.40092 8.7474 6.35438 8.29155 6.44506C7.83569 6.53573 7.41696 6.75955 7.08831 7.0882C6.75966 7.41685 6.53584 7.83558 6.44516 8.29144C6.35449 8.74729 6.40103 9.2198 6.57889 9.64921C6.75676 10.0786 7.05797 10.4456 7.44442 10.7039ZM31.9444 26.4539C32.3309 26.7121 32.7852 26.8499 33.25 26.8499C33.8733 26.8499 34.471 26.6023 34.9117 26.1616C35.3524 25.7209 35.6 25.1232 35.6 24.4999C35.6 24.0351 35.4622 23.5808 35.204 23.1943C34.9457 22.8079 34.5787 22.5066 34.1493 22.3288C33.7199 22.1509 33.2474 22.1044 32.7915 22.1951C32.3357 22.2857 31.917 22.5095 31.5883 22.8382C31.2597 23.1669 31.0358 23.5856 30.9452 24.0414C30.8545 24.4973 30.901 24.9698 31.0789 25.3992C31.2568 25.8286 31.558 26.1956 31.9444 26.4539Z" fill="url(#paint0_linear_33_147)" stroke="black" stroke-width="1.2"/>
<defs>
<linearGradient id="paint0_linear_33_147" x1="21.0004" y1="3.45483" x2="21.0004" y2="40.2716" gradientUnits="userSpaceOnUse">
<stop stop-color="#95C6FF"/>
<stop offset="1" stop-color="#4E55E3"/>
</linearGradient>
</defs>
</svg>
