<svg width="42" height="42" viewBox="0 0 42 42" fill="none" xmlns="http://www.w3.org/2000/svg">
<path d="M35.0972 23.3792L23.332 35.1882C23.0058 35.5144 22.6494 35.7522 22.2617 35.9097C21.8698 36.069 21.4509 36.15 21 36.15C20.5491 36.15 20.1207 36.069 19.7105 35.9074C19.3089 35.7492 18.9478 35.5116 18.6248 35.1887C18.6246 35.1886 18.6244 35.1884 18.6243 35.1882L6.90005 23.4203L6.89926 23.4195C5.93797 22.4582 5.23546 21.3652 4.7852 20.1372C4.32876 18.8923 4.1 17.5915 4.1 16.2312C4.1 13.3707 5.02521 10.9344 6.87603 8.89021C8.71622 6.85775 10.99 5.85 13.7375 5.85C15.0558 5.85 16.2919 6.11036 17.452 6.629C18.6207 7.15151 19.6591 7.87991 20.5695 8.81788L21.0067 9.26836L21.4369 8.81122C22.3161 7.87714 23.3373 7.1507 24.5043 6.629C25.6644 6.11036 26.9005 5.85 28.2188 5.85C30.9664 5.85 33.2483 6.85792 35.1036 8.89185C36.9695 10.9374 37.9 13.3591 37.9 16.1875C37.9 17.5456 37.6647 18.8445 37.195 20.088C36.7291 21.3213 36.0311 22.4172 35.0972 23.3792ZM23.685 15.1055L23.6896 15.113L23.6945 15.1203L26.6695 19.5828L26.8476 19.85H27.1687H34.4312H34.8331L34.9861 19.4784C35.2045 18.9479 35.3691 18.4078 35.479 17.8583C35.5889 17.3088 35.6437 16.7517 35.6437 16.1875V16.1788L35.6435 16.1701C35.5813 14.0232 34.8609 12.1584 33.4797 10.6045C32.083 9.03317 30.3158 8.2375 28.2188 8.2375C27.2348 8.2375 26.2879 8.42841 25.3828 8.80952C24.4719 9.19306 23.6791 9.75359 23.009 10.4869C23.0083 10.4877 23.0076 10.4884 23.0069 10.4892L21.8296 11.7536L21.8184 11.7657L21.8078 11.7784C21.7283 11.8738 21.6177 11.9592 21.4595 12.0284C21.295 12.1004 21.1432 12.1312 21 12.1312C20.8568 12.1312 20.705 12.1004 20.5405 12.0284C20.3768 11.9568 20.2377 11.8625 20.1187 11.7451L18.9493 10.4892C18.9487 10.4885 18.948 10.4877 18.9473 10.487C18.2822 9.75903 17.5037 9.18707 16.6152 8.77454C15.7164 8.35727 14.7548 8.15 13.7375 8.15C11.6361 8.15 9.86796 8.96376 8.47262 10.5652C7.091 12.1509 6.4 14.0349 6.4 16.1875C6.4 16.746 6.44656 17.2976 6.53988 17.842C6.63511 18.3975 6.79354 18.9432 7.01394 19.4784L7.16693 19.85H7.56875H15.75C15.9366 19.85 16.1138 19.8954 16.2899 19.9932C16.4719 20.0944 16.5978 20.216 16.685 20.3555L16.6903 20.3641L16.696 20.3725L18.2272 22.6475L18.9084 23.6596L19.2942 22.5022L21.6567 15.4147C21.7336 15.1842 21.8707 14.9909 22.0855 14.8273C22.289 14.6722 22.5044 14.6 22.75 14.6C22.9366 14.6 23.1138 14.6454 23.2899 14.7432C23.4719 14.8444 23.5978 14.966 23.685 15.1055ZM23.7772 19.3592L23.0982 18.3206L22.7058 19.4978L20.3433 26.5853C20.2692 26.8075 20.1311 26.9991 19.9033 27.1648C19.68 27.3272 19.4525 27.4 19.2063 27.4C19.0196 27.4 18.8425 27.3546 18.6664 27.2568C18.4843 27.1556 18.3585 27.034 18.2713 26.8945L18.2666 26.887L18.2617 26.8797L15.2867 22.4172L15.1086 22.15H14.7875H10.325H8.87647L9.90074 23.1743L20.2695 33.543C20.3495 33.623 20.4804 33.7384 20.6571 33.7973C20.7758 33.8369 20.8935 33.85 21 33.85C21.1065 33.85 21.2242 33.8369 21.3429 33.7973C21.5196 33.7384 21.6505 33.623 21.7305 33.543L21.7314 33.5421L32.0564 23.1734L33.0755 22.15H31.6313H26.25C26.0634 22.15 25.8862 22.1046 25.7101 22.0068C25.5246 21.9037 25.3743 21.7741 25.2532 21.6166L23.7772 19.3592Z" fill="url(#paint0_linear_25_23)" stroke="#333333" stroke-width="1.2"/>
<defs>
<linearGradient id="paint0_linear_25_23" x1="21" y1="5.25" x2="21" y2="36.75" gradientUnits="userSpaceOnUse">
<stop stop-color="#FF9587"/>
<stop offset="1" stop-color="#9F2222"/>
</linearGradient>
</defs>
</svg>
