<svg width="120" height="18" viewBox="0 0 120 18" fill="none" xmlns="http://www.w3.org/2000/svg">
<path d="M6.03789 13.8419C4.97159 13.8419 4.0086 13.6695 3.1489 13.3245C2.29586 12.9734 1.59278 12.4744 1.03964 11.8276C0.493161 11.1746 0.146615 10.3984 0 9.49906L2.83901 9.11098C3.03894 9.87483 3.45212 10.4631 4.07857 10.8758C4.70502 11.2886 5.4181 11.4949 6.21782 11.4949C6.66433 11.4949 7.09752 11.4303 7.51737 11.3009C7.93722 11.1715 8.28043 10.9806 8.54701 10.728C8.82025 10.4754 8.95686 10.1644 8.95686 9.79475C8.95686 9.65923 8.93354 9.52986 8.88689 9.40666C8.8469 9.2773 8.77693 9.15718 8.67696 9.0463C8.577 8.93542 8.43371 8.83069 8.24711 8.73213C8.06717 8.63357 7.83726 8.54425 7.55735 8.46417L3.81866 7.44775C3.53876 7.37383 3.21221 7.26911 2.83901 7.13359C2.47247 6.99806 2.11593 6.80402 1.76938 6.55146C1.42283 6.29889 1.13294 5.96625 0.899685 5.55352C0.673098 5.13463 0.559804 4.60795 0.559804 3.97345C0.559804 3.08024 0.803052 2.33795 1.28955 1.74658C1.77604 1.15521 2.42582 0.714763 3.23887 0.425239C4.05191 0.135714 4.9516 -0.00596786 5.93792 0.000192521C6.93091 0.0125126 7.81726 0.169595 8.59699 0.47144C9.37672 0.773285 10.0298 1.21373 10.5563 1.79278C11.0828 2.36567 11.4627 3.06792 11.6959 3.89953L8.75693 4.36154C8.6503 3.93033 8.45371 3.56689 8.16714 3.2712C7.88057 2.97552 7.53736 2.75068 7.1375 2.59667C6.74431 2.44267 6.33112 2.35951 5.89793 2.34719C5.47142 2.33487 5.06822 2.39031 4.68836 2.51351C4.31516 2.63055 4.0086 2.80304 3.76868 3.03096C3.53543 3.25888 3.4188 3.52993 3.4188 3.84409C3.4188 4.13362 3.51544 4.37078 3.7087 4.55558C3.90197 4.73423 4.14522 4.87899 4.43845 4.98987C4.73168 5.10075 5.03157 5.19316 5.33813 5.26708L7.83726 5.89541C8.21046 5.98781 8.62365 6.11101 9.07682 6.26501C9.53 6.41285 9.96318 6.6223 10.3764 6.89334C10.7962 7.15823 11.1394 7.50935 11.406 7.94672C11.6792 8.38409 11.8159 8.93849 11.8159 9.60995C11.8159 10.3245 11.6526 10.9498 11.326 11.4857C11.0061 12.0155 10.573 12.4559 10.0265 12.807C9.48001 13.152 8.86023 13.4107 8.16714 13.5832C7.48071 13.7557 6.77096 13.8419 6.03789 13.8419Z" fill="#333333"/>
<path d="M16.6415 13.5647L12.423 0.258917H15.282L17.981 9.40666L20.6801 0.277397L23.5391 0.258917L26.2382 9.40666L28.9372 0.258917H31.7962L27.5777 13.5647H24.8986L22.1096 4.58331L19.3206 13.5647H16.6415Z" fill="#333333"/>
<path d="M33.4008 13.5647V0.258917H38.0592C38.1725 0.258917 38.4057 0.261997 38.7589 0.268157C39.1121 0.274317 39.452 0.295877 39.7786 0.332838C40.9382 0.4622 41.9212 0.834886 42.7275 1.45089C43.5339 2.06691 44.147 2.84924 44.5669 3.79789C44.9867 4.74655 45.1967 5.78452 45.1967 6.91182C45.1967 8.03912 44.9867 9.0771 44.5669 10.0258C44.147 10.9744 43.5339 11.7567 42.7275 12.3727C41.9212 12.9888 40.9382 13.3614 39.7786 13.4908C39.452 13.5278 39.1121 13.5493 38.7589 13.5555C38.4057 13.5616 38.1725 13.5647 38.0592 13.5647H33.4008ZM36.1598 11.1993H38.0592C38.2391 11.1993 38.4824 11.1962 38.7889 11.19C39.0955 11.1777 39.372 11.15 39.6186 11.1068C40.2451 10.9898 40.7549 10.7188 41.1481 10.2937C41.548 9.86867 41.8412 9.35738 42.0278 8.75985C42.221 8.16232 42.3177 7.54631 42.3177 6.91182C42.3177 6.24653 42.2177 5.61512 42.0178 5.01759C41.8245 4.42006 41.528 3.91493 41.1281 3.50221C40.7282 3.08948 40.2251 2.82768 39.6186 2.7168C39.372 2.66752 39.0955 2.63979 38.7889 2.63363C38.4824 2.62747 38.2391 2.62439 38.0592 2.62439H36.1598V11.1993Z" fill="#333333"/>
<path d="M51.5976 13.5647V0.258917H59.9946V1.90366H53.3769V6.08945H58V7.7342H53.3769V13.5647H51.5976Z" fill="#333333"/>
<path d="M64.4677 13.8419C63.6614 13.8419 62.9849 13.7064 62.4384 13.4354C61.8986 13.1582 61.4888 12.7947 61.2089 12.345C60.9356 11.8953 60.799 11.4025 60.799 10.8666C60.799 10.343 60.9057 9.89023 61.1189 9.5083C61.3388 9.12022 61.6454 8.79989 62.0386 8.54733C62.4318 8.2886 62.9016 8.08532 63.4481 7.93748C63.9612 7.80812 64.5344 7.69724 65.1675 7.60483C65.8073 7.50627 66.4537 7.41695 67.1068 7.33687C67.7599 7.25679 68.3697 7.17979 68.9362 7.10587L68.2964 7.44775C68.3164 6.5607 68.1231 5.90465 67.7166 5.4796C67.3167 5.05455 66.6236 4.84203 65.6373 4.84203C64.9842 4.84203 64.4111 4.98063 63.9179 5.25784C63.4314 5.52888 63.0882 5.97241 62.8883 6.58842L61.1989 6.11717C61.4588 5.24244 61.9619 4.55558 62.7084 4.05662C63.4548 3.55765 64.4377 3.30817 65.6573 3.30817C66.637 3.30817 67.4767 3.47141 68.1764 3.79789C68.8829 4.11822 69.3893 4.60487 69.6959 5.25784C69.8492 5.56584 69.9458 5.90157 69.9858 6.26501C70.0258 6.6223 70.0458 6.99806 70.0458 7.39231V13.5647H68.4663V11.1715L68.8362 11.3933C68.4297 12.2003 67.8599 12.8101 67.1268 13.2228C66.4004 13.6356 65.514 13.8419 64.4677 13.8419ZM64.7376 12.4652C65.3774 12.4652 65.9305 12.3604 66.3971 12.151C66.8702 11.9354 67.2501 11.6551 67.5367 11.3101C67.8232 10.959 68.0098 10.5771 68.0965 10.1644C68.1964 9.85635 68.2497 9.51446 68.2564 9.1387C68.2697 8.75677 68.2764 8.46417 68.2764 8.26088L68.8962 8.51037C68.3164 8.58429 67.7466 8.65513 67.1868 8.72289C66.627 8.79065 66.0972 8.86457 65.5973 8.94466C65.0975 9.01858 64.6477 9.1079 64.2478 9.21262C63.9546 9.29886 63.678 9.40974 63.4181 9.54526C63.1649 9.68079 62.9583 9.85635 62.7983 10.072C62.645 10.2814 62.5684 10.5432 62.5684 10.8574C62.5684 11.1284 62.6417 11.3871 62.7883 11.6335C62.9416 11.8799 63.1749 12.0801 63.4881 12.2341C63.808 12.3881 64.2245 12.4652 64.7376 12.4652Z" fill="#333333"/>
<path d="M77.1933 13.8419C76.1003 13.8419 75.1707 13.6171 74.4043 13.1674C73.6445 12.7116 73.0647 12.0863 72.6649 11.2917C72.265 10.497 72.0584 9.59146 72.0451 8.57505C72.0584 7.53399 72.2683 6.61922 72.6749 5.83073C73.0881 5.03607 73.6778 4.41698 74.4442 3.97345C75.2106 3.52993 76.1337 3.30817 77.2133 3.30817C78.3529 3.30817 79.3325 3.56689 80.1522 4.08434C80.9786 4.60179 81.5318 5.3102 81.8117 6.20957L80.0523 6.6993C79.8257 6.12025 79.4558 5.67056 78.9427 5.35024C78.4362 5.02991 77.853 4.86975 77.1933 4.86975C76.4535 4.86975 75.8438 5.02991 75.3639 5.35024C74.8841 5.6644 74.5275 6.10177 74.2943 6.66234C74.061 7.21675 73.9411 7.85432 73.9344 8.57505C73.9477 9.68387 74.2243 10.5802 74.7641 11.2639C75.3106 11.9415 76.1203 12.2803 77.1933 12.2803C77.8997 12.2803 78.4862 12.1325 78.9527 11.8368C79.4192 11.535 79.7724 11.1007 80.0123 10.534L81.8117 10.9682C81.4385 11.8984 80.8553 12.6099 80.0623 13.1027C79.2692 13.5955 78.3129 13.8419 77.1933 13.8419Z" fill="#333333"/>
<path d="M89.8798 13.5647C89.24 13.6818 88.6069 13.728 87.9804 13.7033C87.3606 13.6849 86.8075 13.5709 86.321 13.3614C85.8345 13.1458 85.4647 12.8132 85.2114 12.3635C84.9982 11.9693 84.8815 11.5719 84.8615 11.1715C84.8482 10.765 84.8415 10.306 84.8415 9.79475V0.813325H86.6209V9.72083C86.6209 10.1274 86.6243 10.4754 86.6309 10.765C86.6442 11.0545 86.7142 11.304 86.8408 11.5134C87.0807 11.9077 87.4606 12.1387 87.9804 12.2064C88.5069 12.2742 89.14 12.2557 89.8798 12.151V13.5647ZM84.8415 4.94367V3.58537H89.8798V4.94367H84.8415Z" fill="#333333"/>
<path d="M96.221 13.8419C95.148 13.8419 94.2217 13.6171 93.442 13.1674C92.6689 12.7177 92.0724 12.0955 91.6526 11.3009C91.2327 10.5062 91.0228 9.59455 91.0228 8.56581C91.0228 7.51859 91.2361 6.60074 91.6626 5.81224C92.0891 5.02375 92.6922 4.41082 93.472 3.97345C94.2517 3.52993 95.168 3.30817 96.221 3.30817C97.3006 3.30817 98.2303 3.53301 99.01 3.9827C99.7897 4.42622 100.386 5.04531 100.799 5.83997C101.219 6.62846 101.429 7.53707 101.429 8.56581C101.429 9.60687 101.219 10.5247 100.799 11.3194C100.38 12.1079 99.7797 12.727 99 13.1766C98.2203 13.6202 97.294 13.8419 96.221 13.8419ZM96.221 12.2803C97.3406 12.2803 98.1736 11.9354 98.7201 11.2455C99.2666 10.5555 99.5398 9.66231 99.5398 8.56581C99.5398 7.43851 99.2633 6.54222 98.7101 5.87693C98.157 5.20548 97.3273 4.86975 96.221 4.86975C95.4679 4.86975 94.8481 5.02683 94.3616 5.341C93.8751 5.65516 93.5119 6.08945 93.272 6.64386C93.0321 7.19827 92.9121 7.83892 92.9121 8.56581C92.9121 9.68695 93.192 10.5863 93.7519 11.2639C94.3117 11.9415 95.1347 12.2803 96.221 12.2803Z" fill="#333333"/>
<path d="M103.63 13.5647V3.58537H105.22V5.99705L104.96 5.68288C105.086 5.37488 105.25 5.09151 105.449 4.83279C105.656 4.57407 105.886 4.36154 106.139 4.19522C106.419 3.98578 106.736 3.82561 107.089 3.71473C107.442 3.60385 107.802 3.53917 108.169 3.52069C108.535 3.49605 108.878 3.51761 109.198 3.58537V5.12847C108.825 5.03607 108.415 5.01143 107.969 5.05455C107.522 5.09767 107.109 5.2486 106.729 5.50732C106.382 5.73524 106.113 6.01245 105.919 6.33893C105.733 6.66542 105.603 7.01962 105.529 7.40155C105.456 7.77732 105.419 8.16232 105.419 8.55657V13.5647H103.63Z" fill="#333333"/>
<path d="M112.393 18L114.482 12.7516L114.512 14.3039L109.794 3.58537H111.663L115.362 12.2064H114.722L118.191 3.58537H120L114.122 18H112.393Z" fill="#333333"/>
</svg>
