<svg width="2058" height="1164" viewBox="0 0 2058 1164" fill="none" xmlns="http://www.w3.org/2000/svg">
<path opacity="0.2" d="M75.626 474.174C145.432 462.06 229.116 491.359 287.111 533.392C345.107 575.426 382.73 628.468 419.168 680.104C454.564 730.366 500.47 787.2 573.851 802.9C642.399 817.464 704.401 787.21 736.351 748.152C768.302 709.095 780.056 661.293 807.937 620.356C835.839 579.322 888.175 543.413 957.042 548.411C1018.54 552.91 1073.59 587.994 1132.37 608.879C1263.63 655.612 1404.84 628.888 1521.1 591.276C1637.35 553.664 1752.39 505.305 1889.46 511.556" stroke="#FF9E73" stroke-miterlimit="10"/>
<path opacity="0.2" d="M72.1552 468.005C141.03 455.358 223.392 482.503 281.715 522.363C340.039 562.222 379.213 612.972 417.052 662.997C447.573 703.506 484.96 748.809 538.022 772.558C548.634 777.308 559.888 781.183 571.827 783.987C638.912 799.746 699.221 773.085 732.965 737.413C766.915 701.483 782.479 655.385 812.023 615.034C815.254 610.561 818.911 606.189 822.71 601.849C853.223 567.265 901.597 539.134 962.942 542.979C978.873 543.951 994.495 547.005 1009.84 551.327C1053.87 563.826 1095.68 587.085 1139.26 602.967C1185.75 619.939 1233.4 628.26 1280.93 629.679C1354.59 631.904 1427.31 617.392 1493.12 597.663C1505.28 594.057 1517.17 590.286 1528.81 586.351C1580.63 568.982 1632.18 549.495 1686.2 534.384C1753.13 515.639 1824.3 504.145 1898.38 510.571" stroke="#F99A78" stroke-miterlimit="10"/>
<path opacity="0.2" d="M67.7982 461.473C135.594 448.365 216.964 473.327 275.656 510.916C334.348 548.505 375.208 597.089 414.32 645.468C446.026 684.72 484.009 728.729 536.08 752.964C546.531 757.779 557.603 761.816 569.195 764.847C634.837 781.806 693.608 758.781 729.171 726.406C765.106 693.708 784.359 649.191 815.714 609.467C819.23 605.06 822.887 600.687 826.808 596.479C858.421 562.355 907.111 534.192 968.458 537.42C984.415 538.296 1000.08 541.156 1015.61 545.317C1060.05 557.398 1102.17 580.63 1145.97 596.971C1192.52 614.37 1240.11 623.702 1287.97 625.711C1362.35 628.822 1435.38 613.661 1501.07 593.184C1513.11 589.447 1525.05 585.481 1536.57 581.415C1588.25 563.394 1639.78 543.386 1694.21 528.474C1761.71 509.96 1834.88 500.27 1907.29 509.587" stroke="#F3967C" stroke-miterlimit="10"/>
<path opacity="0.2" d="M63.4419 454.939C130.291 441.299 210.298 464.197 269.325 499.507C328.352 534.817 370.753 581.098 411.375 627.988C444.268 665.879 482.638 708.751 534.017 733.338C544.301 738.217 555.042 742.381 566.447 745.573C630.609 763.724 687.674 744.297 725.022 715.313C762.947 685.747 786.006 642.941 819.018 603.807C822.675 599.433 826.595 595.224 830.678 590.951C863.38 557.284 912.245 528.954 973.54 531.657C989.536 532.336 1005.24 535 1020.93 539.096C1065.89 550.786 1108.17 573.952 1152 590.714C1198.46 608.501 1246.1 618.872 1294.14 621.334C1369.06 625.288 1442.37 609.472 1507.89 588.336C1519.95 584.5 1531.77 580.402 1543.3 576.237C1594.94 557.69 1646.27 537.122 1701.27 522.338C1769.29 504.049 1844.58 496.188 1915.29 508.387" stroke="#EC9281" stroke-miterlimit="10"/>
<path opacity="0.2" d="M60.0206 448.546C125.789 434.348 204.612 455.121 263.964 488.248C323.315 521.374 367.409 565.381 409.288 610.612C443.353 647.236 482.283 688.902 532.695 713.773C542.815 718.715 553.369 723.041 564.445 726.361C627.019 745.574 682.668 729.82 721.639 704.3C761.7 677.907 788.279 636.755 823.07 598.353C826.847 594.11 830.93 589.838 835.134 585.696C868.925 552.496 917.947 524.105 979.387 526.124C995.424 526.609 1011.17 529.077 1027.02 533.109C1072.37 544.376 1114.94 567.509 1158.95 584.823C1205.46 603.031 1253.02 614.41 1301.4 617.362C1376.87 622.165 1450.63 605.638 1515.84 583.819C1527.8 579.755 1539.64 575.56 1551.19 571.299C1602.67 552.102 1653.82 530.982 1709.35 516.431C1777.92 498.376 1855.21 492.22 1924.21 507.402" stroke="#E68E85" stroke-miterlimit="10"/>
<path opacity="0.2" d="M56.4963 442.623C121.329 427.968 199.01 446.525 258.7 477.491C318.411 508.36 364.039 550.196 407.465 593.876C442.564 629.233 482.08 669.633 531.779 695.069C541.594 700.044 551.986 704.437 562.835 708.115C623.979 728.435 678.233 716.327 718.702 694.204C761.057 670.983 791.172 631.433 827.64 593.581C831.703 589.401 835.908 585.254 840.255 581.14C875.153 548.362 924.497 519.902 985.793 521.259C1001.86 521.643 1017.79 523.949 1033.71 527.689C1079.43 538.635 1122.2 561.621 1166.41 579.401C1212.98 598.042 1260.47 610.432 1309.18 613.966C1385.37 619.643 1459.44 602.434 1524.39 579.797C1536.37 575.629 1548.09 571.296 1559.69 566.832C1611.15 547.084 1662.14 525.379 1718.26 510.935C1787.41 492.982 1866.83 488.739 1934.01 506.78" stroke="#E08B8A" stroke-miterlimit="10"/>
<path opacity="0.2" d="M53.1092 436.074C116.862 420.884 193.343 437.414 253.408 465.991C313.452 494.666 360.781 534.206 405.474 576.204C441.773 610.178 481.837 649.447 530.575 675.158C540.227 680.196 550.291 684.715 560.955 688.554C620.638 710.064 673.64 701.583 715.467 682.782C760.097 662.793 793.583 624.898 831.846 587.714C836.05 583.571 840.396 579.462 844.863 575.483C880.846 543.202 930.366 514.614 991.787 515.396C1007.89 515.588 1023.87 517.7 1039.95 521.375C1086.21 531.933 1129.13 554.843 1173.55 573.074C1220.17 592.131 1267.61 605.431 1316.49 609.526C1393.23 616.062 1467.59 598.232 1532.54 574.911C1544.4 570.617 1556.14 566.193 1567.62 561.605C1618.91 541.231 1669.86 519.032 1726.39 504.712C1796.08 487.018 1877.52 484.498 1942.99 505.522" stroke="#DA878E" stroke-miterlimit="10"/>
<path opacity="0.2" d="M48.7123 429.722C111.543 413.989 186.712 428.361 247.113 454.768C307.514 481.175 356.377 518.527 402.474 558.925C439.949 591.651 480.434 629.704 528.498 655.779C537.986 660.883 547.867 665.566 558.203 669.534C616.43 692.247 668.171 687.461 711.369 671.941C758.431 655.172 795.306 618.864 835.218 582.346C839.686 578.364 844.175 574.285 848.785 570.337C885.87 538.494 935.562 509.817 997.119 510.006C1013.25 510.098 1029.27 512.014 1045.54 515.528C1092.19 525.665 1135.42 548.553 1180.04 567.247C1226.71 586.734 1274.09 601.045 1323.29 605.724C1400.6 613.105 1475.4 594.638 1540.06 570.608C1551.95 566.213 1563.59 561.556 1575.09 556.865C1626.36 535.951 1677.14 513.177 1734.25 498.974C1804.64 481.524 1888.08 480.796 1951.87 504.714" stroke="#D48393" stroke-miterlimit="10"/>
<path opacity="0.2" d="M45.3543 423.045C107.241 406.859 181.26 419.006 241.994 443.24C302.727 467.475 353.286 502.575 400.785 541.374C439.314 572.723 480.481 609.727 527.705 636.234C537.007 641.502 546.582 646.217 556.57 650.413C613.336 674.332 663.814 673.243 708.382 661.003C757.875 647.454 798.019 612.597 839.581 576.736C844.192 572.784 848.803 568.832 853.556 564.914C891.721 533.599 941.629 504.631 1003.16 504.287C1019.33 504.182 1035.39 505.901 1051.83 509.35C1098.87 519.066 1142.39 542.031 1187.08 561.058C1233.82 580.976 1281.12 596.301 1330.52 601.433C1408.4 609.656 1483.5 590.511 1548.04 565.7C1559.8 561.168 1571.47 556.408 1583 551.614C1634.11 530.021 1684.87 506.699 1742.39 492.672C1813.33 475.428 1898.79 476.391 1960.86 503.404" stroke="#CE7F97" stroke-miterlimit="10"/>
<path opacity="0.2" d="M41.9986 416.355C102.788 399.652 175.589 409.777 236.662 431.716C297.736 453.655 349.821 486.511 398.719 523.646C438.419 553.696 480.027 589.324 526.402 616.222C535.54 621.549 544.927 626.422 554.585 630.742C609.879 655.838 659.358 658.535 704.989 649.556C757.027 639.313 800.386 606.102 843.587 570.904C848.337 566.993 853.229 563.115 858.122 559.238C897.218 528.411 947.549 499.504 1009.06 498.464C1025.27 498.168 1041.52 499.727 1057.99 502.981C1105.39 512.372 1149.23 535.187 1194.09 554.753C1240.73 575.045 1288.09 591.402 1337.82 597.031C1416.37 606.148 1491.73 586.405 1555.97 560.868C1567.75 556.249 1579.31 551.271 1590.85 546.39C1641.94 524.227 1692.47 500.498 1750.54 486.644C1822.02 469.581 1909.57 472.5 1969.79 502.344" stroke="#C87B9C" stroke-miterlimit="10"/>
<path opacity="0.2" d="M38.4341 410.611C98.2947 393.329 169.768 401.281 231.181 420.949C292.595 440.616 346.338 471.329 396.621 506.88C437.482 535.697 479.636 570.161 525.156 597.503C534.127 602.899 543.205 607.806 552.633 612.487C606.451 638.798 654.799 645.222 701.671 639.379C756.23 632.567 802.737 600.638 847.73 566.091C852.765 562.239 857.637 558.45 862.815 554.631C903.013 524.2 953.514 495.161 1015.01 493.473C1031.1 493.038 1047.53 494.432 1064.18 497.522C1112.11 506.52 1156.1 529.288 1201 549.291C1247.68 570.02 1294.96 587.394 1345 593.599C1424.1 603.549 1499.78 582.994 1563.98 556.866C1575.81 552.039 1587.23 547.015 1598.67 541.893C1649.59 519.117 1700.11 494.708 1758.58 481.005C1830.61 464.114 1920.14 468.806 1978.66 501.565" stroke="#C177A0" stroke-miterlimit="10"/>
<path opacity="0.2" d="M34.0536 404.187C92.8246 386.481 163.158 392.226 225.061 409.744C286.822 427.229 342.138 455.62 393.844 489.528C435.917 516.963 478.489 550.264 523.207 577.911C531.875 583.334 540.913 588.434 550.016 593.241C602.27 620.605 649.722 631.137 697.724 628.35C754.954 625.063 804.598 594.538 851.25 560.641C856.405 556.925 861.583 553.112 866.738 549.396C908.027 519.474 958.713 490.323 1020.35 488.071C1036.48 487.447 1052.96 488.649 1069.78 491.676C1118.11 500.258 1162.42 522.985 1207.53 543.436C1254.28 564.58 1301.5 582.959 1351.74 589.63C1431.42 600.444 1507.54 579.32 1571.47 552.459C1583.18 547.511 1594.62 542.398 1606.09 537.187C1656.99 513.835 1707.17 488.979 1766.36 475.477C1838.94 458.86 1930.5 465.28 1987.48 501.041" stroke="#BB73A4" stroke-miterlimit="10"/>
<path opacity="0.2" d="M29.696 397.657C87.5577 379.404 156.738 383.019 218.85 398.329C280.983 413.542 337.99 439.774 390.994 471.949C434.112 498.104 477.423 530.159 521.312 558.241C529.818 563.732 538.532 568.964 547.452 573.935C598.259 602.513 644.699 617.017 693.84 617.261C753.733 617.565 806.416 588.233 854.891 554.934C860.191 551.248 865.633 547.596 870.933 543.91C913.333 514.422 964.202 485.178 1025.99 482.331C1042.15 481.607 1058.67 482.613 1075.68 485.479C1124.42 493.641 1169.05 516.349 1214.23 537.235C1261.05 558.814 1308.2 578.212 1358.78 585.472C1439.19 597.169 1515.63 575.369 1579.31 547.696C1591.04 542.645 1602.53 537.332 1613.88 531.985C1664.62 508.053 1714.81 482.553 1774.43 469.231C1847.58 452.824 1941.31 461.076 1996.47 499.716" stroke="#B56FA9" stroke-miterlimit="10"/>
<path opacity="0.2" d="M27.2243 391.343C83.9786 372.528 151.918 374.109 214.505 387.065C276.929 400.086 335.453 424.002 389.965 454.576C434.229 479.455 477.952 510.165 520.949 538.753C529.286 544.306 537.808 549.697 546.373 554.893C595.685 584.656 641.045 603.22 691.462 606.334C753.937 610.328 809.769 582.156 859.857 549.553C865.438 545.934 870.877 542.282 876.294 538.727C919.762 509.705 970.929 480.334 1032.5 476.926C1048.69 476.005 1065.25 476.814 1082.41 479.613C1131.63 487.477 1176.41 510.014 1221.76 531.348C1268.6 553.341 1315.65 573.74 1366.39 581.45C1447.3 593.986 1523.99 571.534 1587.5 543.111C1599.1 537.928 1610.61 532.517 1621.85 526.942C1672.41 502.358 1722.51 476.435 1782.66 463.244C1856.48 447 1951.99 457.01 2005.41 498.624" stroke="#AF6BAD" stroke-miterlimit="10"/>
<path opacity="0.2" d="M22.9001 384.662C78.752 365.345 145.413 364.785 208.371 375.572C271.188 386.325 331.426 408.072 387.24 436.991C432.733 460.509 477.032 490.112 519.242 519.018C527.421 524.635 535.622 530.154 544.008 535.511C591.895 566.47 636.096 589.069 687.83 595.165C752.822 602.836 811.863 575.85 863.776 543.905C869.479 540.42 875.205 536.838 880.788 533.222C925.347 504.785 976.721 475.279 1038.48 471.206C1054.72 470.095 1071.45 470.843 1088.69 473.353C1138.33 480.805 1183.45 503.312 1228.86 525.168C1275.79 547.588 1322.82 568.9 1373.91 577.208C1455.43 590.609 1532.59 567.571 1595.98 538.526C1607.61 533.251 1619.02 527.617 1630.27 522.048C1680.81 496.967 1730.79 470.417 1791.37 457.446C1865.77 441.46 1963.48 453.326 2015.25 497.824" stroke="#A968B2" stroke-miterlimit="10"/>
<path opacity="0.2" d="M19.4938 378.203C74.2467 358.437 139.892 355.697 203.037 364.271C266.183 372.846 328.117 392.32 385.335 419.613C431.861 441.829 476.888 470.157 518.116 499.44C526.132 505.119 534.005 510.765 542.042 516.347C588.305 548.556 631.459 575.213 684.499 584.184C751.948 595.617 814.33 569.742 867.899 538.411C873.745 534.962 879.612 531.415 885.315 527.932C930.963 499.974 982.494 470.421 1044.37 465.771C1060.64 464.564 1077.43 465.021 1094.84 467.467C1144.87 474.5 1190.27 497.067 1235.9 519.278C1282.74 542.082 1329.84 564.432 1381.11 573.295C1463.19 587.548 1540.63 563.878 1603.87 534.102C1615.41 528.602 1626.82 522.972 1638.11 517.21C1688.49 491.493 1738.4 464.536 1799.41 451.676C1874.35 435.935 1974.07 449.51 2024.14 496.979" stroke="#A364B6" stroke-miterlimit="10"/>
<path opacity="0.2" d="M15.0927 371.869C68.9271 351.588 133.249 346.797 196.908 353.135C260.424 359.439 323.911 376.712 382.551 402.387C430.268 423.341 475.733 450.434 516.277 480.166C524.132 485.909 531.823 491.716 539.535 497.426C584.353 530.829 626.311 561.612 680.676 573.46C750.583 588.753 816.205 563.855 871.59 533.167C877.721 529.786 883.71 526.372 889.557 522.924C936.308 495.44 988.035 465.739 1049.92 460.478C1066.23 459.079 1083.07 459.342 1100.5 461.693C1151.08 468.342 1196.66 490.846 1242.36 513.481C1289.28 536.709 1336.31 560.068 1387.94 569.426C1470.76 584.471 1548.52 560.167 1611.48 529.72C1623.03 524.125 1634.32 518.367 1645.66 512.413C1696.02 486.187 1745.79 458.59 1807.35 445.971C1882.86 430.474 1984.75 445.894 2033.01 496.211" stroke="#9C60BB" stroke-miterlimit="10"/>
<path opacity="0.2" d="M10.7438 365.301C63.5352 344.419 126.713 337.483 190.755 341.535C254.654 345.554 319.845 360.663 379.771 384.705C428.706 404.315 474.73 430.33 514.326 460.382C521.877 466.163 529.407 472.04 536.915 478.016C580.286 512.653 621.045 547.601 676.766 562.231C749.021 581.259 818.193 557.343 875.232 527.392C881.509 524.039 887.622 520.749 893.614 517.329C941.346 490.225 993.553 460.474 1055.45 454.573C1071.8 453.071 1088.69 453.135 1106.31 455.323C1157.28 461.647 1203.21 484.043 1249.12 507.157C1296.11 530.831 1343.1 555.221 1395.06 565.169C1478.48 581.067 1556.72 556.095 1619.44 524.808C1630.88 519.072 1642.22 513.108 1653.42 507.11C1703.66 480.183 1753.26 452.08 1815.44 439.466C1891.56 424.065 1995.47 441.385 2042.05 494.652" stroke="#965CBF" stroke-miterlimit="10"/>
<path opacity="0.2" d="M8.16702 359.462C153.88 299.382 379.45 335.934 513.703 441.44C564.274 481.161 606.857 531.333 673.914 551.914C756.508 577.275 836.911 546.233 898.593 512.644C960.275 479.054 1027.48 440.084 1112.77 449.847C1216.59 461.7 1299.08 540.973 1402.32 561.527C1486.22 578.257 1564.68 552.616 1627.34 520.694C1690 488.772 1746.89 449.126 1823.47 434.035C1900.08 418.847 2006.04 437.883 2050.87 494.131" stroke="#9058C4" stroke-miterlimit="10"/>
<path opacity="0.2" d="M11.4401 379.654C154.868 317.177 380.238 350.106 517.598 453.191C569.276 492.016 613.252 541.348 680.56 560.854C747.158 580.194 811.448 563.274 865.191 537.924C878.381 531.683 890.783 524.948 902.595 518.178C938.052 497.77 974.978 475.448 1016.4 461.881C1045.23 452.539 1076.4 447.444 1110.62 450.247C1144.25 453.015 1176 462.936 1207.22 475.916C1270.54 501.977 1331.5 540.726 1400.62 555.423C1474.31 571.091 1543.36 556.316 1601.92 533.534C1609.92 530.487 1617.65 527.275 1625.13 523.899C1672.83 502.877 1717.71 477.704 1770.23 460.586C1787.14 455.115 1804.77 450.43 1823.61 447.055C1900.69 433.14 2005.36 450.03 2050.38 500.736" stroke="#8C5BC7" stroke-miterlimit="10"/>
<path opacity="0.2" d="M15.6686 399.896C156.74 334.987 381.796 364.164 521.98 464.99C574.728 502.919 620.203 551.447 687.721 569.871C754.386 588.096 818.109 570.246 870.656 544.129C883.435 537.696 895.711 530.836 907.134 523.776C941.546 502.63 977.099 479.701 1017.37 465.162C1045.3 455.108 1075.48 449.069 1109.02 450.795C1141.86 452.355 1173.14 460.934 1204.47 472.703C1267.97 496.441 1330.25 533.84 1399.29 549.443C1472.61 565.949 1541.06 554.44 1599.67 535.388C1607.56 532.831 1615.35 530.046 1622.97 527.324C1671 509.48 1716.64 487.586 1769.88 472.505C1786.96 467.594 1804.76 463.468 1823.69 460.325C1901.21 447.665 2004.54 462.297 2049.85 507.504" stroke="#895ECA" stroke-miterlimit="10"/>
<path opacity="0.2" d="M18.7791 420.825C157.591 353.402 382.615 378.87 525.702 477.528C579.407 514.562 626.406 562.332 694.174 579.688C761.068 596.941 824.124 578.103 875.512 551.187C888.031 544.587 899.926 537.429 911.111 530.105C944.621 508.327 978.869 484.567 1017.74 468.973C1044.64 458.159 1074.1 451.332 1106.73 451.815C1138.94 452.199 1169.77 459.443 1201.08 469.977C1264.69 491.281 1328.32 527.363 1397.46 543.913C1470.6 561.3 1538.48 553.135 1597.2 537.689C1605.14 535.554 1612.95 533.386 1620.63 531.087C1669.16 516.428 1715.44 497.752 1769.33 484.556C1786.7 480.328 1804.73 476.559 1823.71 473.838C1901.73 462.411 2003.76 474.888 2049.27 514.511" stroke="#8560CE" stroke-miterlimit="10"/>
<path opacity="0.2" d="M21.0629 441.119C157.501 371.238 382.582 393.009 528.819 489.363C583.626 525.641 632.05 572.534 700.096 588.827C767.124 604.983 829.8 585.319 879.783 557.437C892.069 550.571 903.708 543.246 914.494 535.72C947.115 513.306 979.905 488.777 1017.67 472.191C1043.7 460.65 1072.31 453.001 1104.18 452.275C1135.6 451.547 1166.17 457.393 1197.47 466.696C1261.33 485.7 1326.34 520.475 1395.33 537.914C1468.18 556.156 1535.5 551.339 1594.52 539.437C1602.5 537.823 1610.37 536.077 1618.09 534.299C1666.98 522.892 1714.22 507.404 1768.77 496.095C1786.33 492.419 1804.54 489.204 1823.64 486.71C1902.17 476.518 2002.97 486.749 2048.82 520.924" stroke="#8263D1" stroke-miterlimit="10"/>
<path opacity="0.2" d="M25.2386 461.601C159.371 389.323 384.238 407.381 533.517 501.52C589.421 536.907 639.208 583.062 707.494 598.283C774.622 613.334 836.756 592.753 885.561 564.118C897.582 557.097 908.836 549.485 919.358 541.804C951.087 518.696 982.515 493.568 1018.89 475.858C1044.01 463.709 1071.65 455.025 1102.74 453.098C1133.38 451.168 1163.64 455.713 1194.92 463.777C1259.15 480.406 1325.18 513.967 1394.29 532.252C1466.78 551.436 1533.7 549.824 1592.8 541.656C1600.82 540.565 1608.71 539.344 1616.49 537.992C1665.73 529.764 1713.74 517.559 1769.06 508.197C1786.78 505.18 1805.19 502.428 1824.53 500.202C1903.53 491.276 2003.01 499.364 2049.2 527.956" stroke="#7E66D4" stroke-miterlimit="10"/>
<path opacity="0.2" d="M28.28 482.843C160.183 407.818 384.864 422.04 537.141 514.158C593.986 548.693 645.274 594.159 713.945 608.337C781.292 622.41 842.768 600.76 890.425 571.238C902.069 563.896 913.067 556.095 923.353 548.126C954.191 524.318 984.302 498.385 1019.44 479.494C1043.54 466.544 1070.47 457.036 1100.79 453.876C1130.78 450.844 1160.63 453.846 1191.86 460.771C1256.33 474.991 1323.68 507.366 1392.76 526.472C1465.06 546.542 1531.26 548.212 1590.63 543.547C1598.68 542.972 1606.64 542.167 1614.43 541.427C1664.03 536.318 1712.83 527.322 1768.77 519.898C1786.79 517.55 1805.43 515.141 1824.68 513.29C1904.18 505.539 2002.38 511.332 2048.71 534.554" stroke="#7B69D7" stroke-miterlimit="10"/>
<path opacity="0.2" d="M31.5364 503.109C161.162 425.597 385.631 436.17 540.995 525.929C598.938 559.591 651.61 604.25 720.527 617.355C787.978 630.321 848.901 607.822 895.27 577.38C906.653 569.875 917.41 561.811 927.293 553.645C957.083 529.179 985.86 502.522 1019.73 482.614C1042.95 468.943 1069.04 458.517 1098.41 454.21C1127.63 449.968 1157.17 451.665 1188.52 457.384C1253.26 469.096 1321.77 500.304 1390.95 520.359C1462.92 541.278 1528.68 546.34 1588.16 545.299C1596.27 545.148 1604.24 544.964 1612.09 544.648C1662.04 542.707 1711.62 536.979 1768.34 531.486C1786.54 529.694 1805.35 527.841 1824.71 526.219C1904.69 519.713 2001.6 523.252 2048.25 540.996" stroke="#776BDA" stroke-miterlimit="10"/>
<path opacity="0.2" d="M35.712 523.591C162.942 443.644 387.008 450.455 545.263 537.976C604.106 570.704 658.249 614.555 727.347 626.575C794.98 638.455 855.173 614.99 900.312 583.879C911.444 576.117 921.788 567.861 931.422 559.439C960.3 534.269 987.699 507.004 1020.29 485.995C1042.58 471.709 1067.67 460.34 1096.38 454.859C1124.79 449.409 1154.02 449.701 1185.3 454.274C1250.22 463.564 1320.01 493.419 1389.08 514.37C1460.8 536.151 1525.79 544.431 1585.3 547.107C1593.43 547.478 1601.43 547.815 1609.33 547.924C1659.59 549.147 1709.91 546.686 1767.21 543.091C1785.55 541.953 1804.54 540.558 1824.1 539.297C1904.49 534.036 2000 535.411 2046.81 547.535" stroke="#746EDD" stroke-miterlimit="10"/>
<path opacity="0.2" d="M38.9683 543.858C163.938 461.544 387.889 464.681 549.146 549.878C609.116 581.723 664.816 624.778 734.186 635.736C801.949 646.523 861.744 622.285 905.601 590.301C916.473 582.385 926.414 573.944 935.808 565.271C963.782 539.511 989.848 511.559 1021.04 489.531C1042.3 474.512 1066.69 462.279 1094.62 455.701C1122.4 449.09 1151.2 448.054 1182.46 451.397C1247.65 458.292 1318.66 486.88 1387.85 508.78C1459.28 531.41 1523.71 543.056 1583.51 549.301C1591.68 550.196 1599.74 550.96 1607.66 551.69C1658.43 556.124 1709.4 556.911 1767.48 555.363C1786.14 554.821 1805.18 553.956 1824.85 552.931C1905.62 548.813 2000.01 548.096 2047.14 554.756" stroke="#7171E1" stroke-miterlimit="10"/>
<path opacity="0.2" d="M43.1442 564.34C165.566 479.625 389.227 479.171 553.393 562.018C614.405 592.956 671.435 635.157 740.983 645.037C808.904 654.842 867.965 629.661 910.632 596.837C921.252 588.672 930.922 580.078 939.902 571.219C966.942 544.872 991.506 516.201 1021.56 493.124C1041.9 477.503 1065.42 464.373 1092.4 456.565C1119.36 448.855 1147.72 446.292 1179.08 448.431C1244.44 452.919 1316.71 480.249 1385.65 503.005C1456.69 526.457 1520.62 541.475 1580.46 551.33C1588.66 552.745 1596.75 554.029 1604.71 555.182C1655.79 562.773 1707.64 566.855 1766.29 567.205C1785.09 567.317 1804.47 566.848 1824.2 566.152C1905.39 563.286 1998.37 560.426 2045.64 561.586" stroke="#6D74E4" stroke-miterlimit="10"/>
<path opacity="0.2" d="M46.1852 585.582C166.498 498.298 389.979 494.05 557.056 574.652C619.019 604.704 677.545 646.261 747.341 655.063C815.367 663.758 873.905 637.591 915.251 604C925.471 595.625 934.902 586.759 943.645 577.627C969.808 550.525 993.026 521.192 1021.82 497.069C1041.28 480.705 1063.82 466.607 1090.15 457.707C1116.33 448.773 1144.39 444.897 1175.73 445.794C1241.35 447.767 1314.8 473.847 1383.85 497.557C1454.7 521.897 1517.92 540.136 1577.99 553.734C1586.11 555.539 1594.37 557.377 1602.37 559.051C1653.81 569.799 1706.44 577.135 1765.73 579.364C1784.71 580.027 1804.27 580.107 1824.09 579.733C1905.75 578.087 1997.46 572.949 2045.05 568.632" stroke="#6A77E7" stroke-miterlimit="10"/>
<path opacity="0.2" d="M48.5231 605.632C166.457 515.791 389.965 507.83 560.14 586.303C623.223 615.494 683.15 656.263 753.215 663.997C821.51 671.622 879.373 644.561 919.589 610.07C929.571 601.431 938.602 592.362 947.086 583.063C972.21 555.292 994.245 525.257 1021.66 499.975C1040.24 482.883 1061.95 467.862 1087.37 457.715C1112.93 447.602 1140.57 442.289 1171.87 442.047C1237.78 441.515 1312.56 466.474 1381.59 491.106C1452.13 516.301 1514.94 537.934 1575.16 555.057C1583.32 557.384 1591.62 559.744 1599.82 561.876C1651.62 575.791 1705.05 586.392 1765.14 590.55C1784.43 591.899 1804.06 592.403 1824.12 592.291C1906.3 591.885 1996.73 584.589 2044.67 574.703" stroke="#6679EA" stroke-miterlimit="10"/>
<path opacity="0.2" d="M52.6985 626.114C168.26 533.965 391.448 522.284 564.593 598.449C628.739 626.75 690.016 666.686 760.43 673.38C828.768 679.996 886.064 652.015 925.088 616.766C934.803 607.97 943.588 598.648 951.662 589.159C975.864 560.789 996.553 530.054 1022.7 503.681C1040.37 485.981 1061.08 470.024 1085.85 458.712C1110.62 447.4 1137.93 440.79 1169.2 439.313C1235.31 436.38 1311.24 460.063 1380.34 485.529C1450.69 511.49 1512.74 536.426 1573.15 557.285C1581.34 560.132 1589.55 562.881 1597.9 565.664C1650.03 582.731 1704.21 596.588 1764.88 602.736C1784.34 604.64 1804.16 605.602 1824.29 605.818C1906.9 606.659 1996 597.123 2044.08 581.749" stroke="#637CED" stroke-miterlimit="10"/>
<path opacity="0.2" d="M55.9553 646.381C169.136 551.737 392.199 536.502 568.504 610.403C633.642 637.797 696.482 676.949 767.172 682.59C835.786 688.153 892.544 659.368 930.285 623.245C939.761 614.199 948.142 604.69 955.977 594.951C979.295 565.893 998.627 534.567 1023.37 507.177C1040.01 488.745 1059.88 471.893 1084 459.523C1108 447.022 1135.04 439.027 1166.27 436.424C1232.67 431.014 1309.99 453.378 1379.05 479.951C1449.12 506.66 1510.74 535.073 1571.15 559.511C1579.38 562.879 1587.63 566.15 1596.05 569.356C1648.56 589.583 1703.55 606.703 1765.03 614.791C1784.65 617.352 1804.82 618.81 1825.04 619.358C1908.18 621.466 1996 609.816 2044.41 589.011" stroke="#5F7FF0" stroke-miterlimit="10"/>
<path opacity="0.2" d="M59.9155 667.839C170.987 570.442 393.809 551.281 572.923 623.048C639.126 649.592 703.308 687.991 774.222 692.526C842.918 696.952 899.147 667.114 935.59 630.06C944.665 620.788 952.81 610.99 960.386 601.058C982.809 571.292 1000.82 539.155 1024.33 510.569C1040.06 491.457 1059.12 473.538 1082.3 459.977C1105.53 446.221 1132.28 436.787 1163.46 433.017C1230.11 425.044 1308.7 446.28 1377.68 473.785C1447.54 501.393 1508.4 533.156 1569.05 561.169C1577.33 564.964 1585.61 568.758 1594.06 572.489C1646.88 595.993 1702.65 616.286 1764.88 626.282C1784.82 629.424 1805.02 631.395 1825.33 632.161C1908.93 635.463 1995.45 621.474 2044.04 595.081" stroke="#5C82F3" stroke-miterlimit="10"/>
<path opacity="0.2" d="M63.1718 688.105C171.941 588.265 394.534 565.381 576.809 635.004C644.08 660.768 709.779 698.384 780.928 701.85C849.838 705.303 905.382 674.5 940.649 636.674C949.482 627.144 957.363 617.186 964.555 606.963C986.066 576.586 1002.74 543.738 1024.83 514.114C1039.68 494.289 1057.87 475.558 1080.27 460.794C1102.69 445.933 1129.01 435.069 1160.31 430.098C1227.21 419.626 1306.95 439.694 1376.04 468.042C1445.56 496.491 1506 531.536 1566.72 563.258C1575.04 567.574 1583.35 571.889 1591.83 576.141C1645.14 602.836 1701.69 626.389 1764.38 638.344C1784.48 642.14 1804.87 644.569 1825.26 645.662C1909.33 650.211 1994.53 634.076 2043.45 602.128" stroke="#5884F7" stroke-miterlimit="10"/>
<path opacity="0.2" d="M66.4285 708.371C172.734 606.165 395.22 579.763 580.412 647.062C648.637 671.909 715.862 708.727 787.249 711.137C856.253 713.501 911.228 681.903 945.334 643.248C953.901 633.569 961.375 623.427 968.322 612.956C988.774 581.966 1004.25 548.473 1025.08 517.777C1039.01 497.357 1056.23 477.608 1077.82 461.758C1099.6 445.745 1125.49 433.468 1156.88 427.406C1223.89 414.43 1305.08 433.399 1373.98 462.611C1443.32 491.924 1503.03 530.259 1564.02 565.51C1572.37 570.343 1580.75 575.08 1589.26 579.849C1642.93 609.687 1700.26 636.487 1763.73 650.371C1783.97 654.82 1804.59 657.611 1825.2 659.069C1909.74 664.877 1993.64 646.534 2042.86 609.174" stroke="#5587FA" stroke-miterlimit="10"/>
<path opacity="0.2" d="M70.6044 728.853C174.604 624.124 396.829 593.882 585.024 658.831C654.317 682.809 722.891 718.836 794.499 720.154C863.724 721.426 918.016 688.799 950.932 649.406C983.849 610.012 1000.02 563.194 1026.15 520.667C1052.29 478.14 1091.81 437.937 1154.31 423.665C1221.54 408.246 1303.9 425.848 1372.85 456.112C1441.82 486.277 1500.92 527.984 1562.13 566.902C1623.2 605.786 1689.33 643.395 1763.64 661.57C1868.42 687.313 1981.24 668.537 2042.5 615.166" stroke="#518AFD" stroke-miterlimit="10"/>
</svg>
