<svg width="334" height="300" viewBox="0 0 334 300" fill="none" xmlns="http://www.w3.org/2000/svg">
<g opacity="0.24">
<g clip-path="url(#clip0_525_2)">
<path d="M167.001 300C162.001 300 157.209 299.097 152.626 297.292C148.042 295.486 143.945 292.778 140.334 289.167L28.6673 177.083C18.9451 167.361 11.7923 156.25 7.20898 143.75C2.62565 131.25 0.333984 118.194 0.333984 104.583C0.333984 75.9722 9.63954 51.3889 28.2507 30.8333C46.8618 10.2778 70.0562 0 97.834 0C111.167 0 123.737 2.63889 135.542 7.91667C147.348 13.1944 157.834 20.5556 167.001 30C175.89 20.5556 186.237 13.1944 198.042 7.91667C209.848 2.63889 222.417 0 235.751 0C263.528 0 286.792 10.2778 305.542 30.8333C324.292 51.3889 333.667 75.8333 333.667 104.167C333.667 117.778 331.306 130.833 326.584 143.333C321.862 155.833 314.778 166.944 305.334 176.667L193.251 289.167C189.64 292.778 185.612 295.486 181.167 297.292C176.723 299.097 172.001 300 167.001 300ZM183.667 83.3333C186.445 83.3333 189.084 84.0278 191.584 85.4167C194.084 86.8056 196.028 88.6111 197.417 90.8333L225.751 133.333H294.917C296.862 128.611 298.32 123.819 299.292 118.958C300.265 114.097 300.751 109.167 300.751 104.167C300.195 85 293.806 68.5417 281.584 54.7917C269.362 41.0417 254.084 34.1667 235.751 34.1667C227.14 34.1667 218.876 35.8333 210.959 39.1667C203.042 42.5 196.167 47.3611 190.334 53.75L179.084 65.8333C177.695 67.5 175.89 68.8194 173.667 69.7917C171.445 70.7639 169.223 71.25 167.001 71.25C164.778 71.25 162.556 70.7639 160.334 69.7917C158.112 68.8194 156.167 67.5 154.501 65.8333L143.251 53.75C137.417 47.3611 130.612 42.3611 122.834 38.75C115.056 35.1389 106.723 33.3333 97.834 33.3333C79.5006 33.3333 64.2229 40.3472 52.0006 54.375C39.7784 68.4028 33.6673 85 33.6673 104.167C33.6673 109.167 34.084 114.097 34.9173 118.958C35.7506 123.819 37.1395 128.611 39.084 133.333H117.001C119.778 133.333 122.417 134.028 124.917 135.417C127.417 136.806 129.362 138.611 130.751 140.833L145.334 162.5L167.834 95C168.945 91.6667 170.959 88.8889 173.876 86.6667C176.792 84.4444 180.056 83.3333 183.667 83.3333ZM188.667 137.5L166.167 205C165.056 208.333 162.973 211.111 159.917 213.333C156.862 215.556 153.528 216.667 149.917 216.667C147.14 216.667 144.501 215.972 142.001 214.583C139.501 213.194 137.556 211.389 136.167 209.167L107.834 166.667H65.334L164.084 265.417C164.64 265.972 165.126 266.319 165.542 266.458C165.959 266.597 166.445 266.667 167.001 266.667C167.556 266.667 168.042 266.597 168.459 266.458C168.876 266.319 169.362 265.972 169.917 265.417L268.251 166.667H217.001C214.223 166.667 211.584 165.972 209.084 164.583C206.584 163.194 204.501 161.389 202.834 159.167L188.667 137.5Z" fill="url(#paint0_linear_525_2)"/>
</g>
</g>
<defs>
<linearGradient id="paint0_linear_525_2" x1="167.001" y1="0" x2="167.001" y2="300" gradientUnits="userSpaceOnUse">
<stop stop-color="#FF9587"/>
<stop offset="1" stop-color="#9F2222"/>
</linearGradient>
<clipPath id="clip0_525_2">
<rect width="334" height="300" fill="white"/>
</clipPath>
</defs>
</svg>
