<svg width="42" height="42" viewBox="0 0 42 42" fill="none" xmlns="http://www.w3.org/2000/svg">
<g clip-path="url(#clip0_33_139)">
<path d="M16.6385 34.9429L17.4175 35.1864V34.3702V27.8077C17.4175 27.3096 17.5152 26.6244 17.9264 25.8953C18.336 25.169 19.0775 24.3619 20.4237 23.6478L21.9099 22.8593L20.2602 22.5294C19.0114 22.2796 17.7973 22.1327 16.8175 22.1327C15.4678 22.1327 13.6218 22.3922 11.8766 22.9004C10.1504 23.4032 8.41634 24.1795 7.38478 25.2799L7.13456 25.5468L7.25724 25.8914C8.78959 30.1966 12.2561 33.5734 16.6385 34.9429ZM19.0175 34.9302V35.465L19.5487 35.5263C20.0337 35.5822 20.5131 35.6002 21 35.6002C27.1897 35.6002 32.4619 31.7294 34.5957 26.3127L34.7554 25.9075L34.4196 25.6302C33.5182 24.8855 32.2106 24.3544 30.9327 24.0086C29.645 23.6601 28.3145 23.4802 27.3175 23.4802C25.9677 23.4802 23.9691 23.804 22.2929 24.4525C21.4546 24.7769 20.6585 25.1969 20.0619 25.7292C19.462 26.2645 19.0175 26.9584 19.0175 27.8077V34.9302ZM4.1 21.0002C4.1 11.6716 11.6714 4.10024 21 4.10024C30.3286 4.10024 37.9 11.6716 37.9 21.0002C37.9 30.3289 30.3286 37.9002 21 37.9002C11.6714 37.9002 4.1 30.3289 4.1 21.0002ZM31.295 17.9727C31.295 15.7689 29.5214 13.9952 27.3175 13.9952C25.1198 13.9952 23.3209 15.7635 23.34 17.9755C23.3415 20.1781 25.1145 21.9502 27.3175 21.9502C29.5214 21.9502 31.295 20.1766 31.295 17.9727ZM21.5475 15.9602C21.5475 13.3539 19.4239 11.2302 16.8175 11.2302C14.1936 11.2302 12.0875 13.3364 12.0875 15.9602C12.0875 18.5666 14.2111 20.6902 16.8175 20.6902C19.4239 20.6902 21.5475 18.5666 21.5475 15.9602Z" fill="url(#paint0_linear_33_139)" stroke="black" stroke-width="1.2"/>
</g>
<defs>
<linearGradient id="paint0_linear_33_139" x1="21" y1="3.50024" x2="21" y2="38.5002" gradientUnits="userSpaceOnUse">
<stop stop-color="#48DDFF"/>
<stop offset="1" stop-color="#198A3B"/>
</linearGradient>
<clipPath id="clip0_33_139">
<rect width="42" height="42" fill="white"/>
</clipPath>
</defs>
</svg>
