<svg width="42" height="42" viewBox="0 0 42 42" fill="none" xmlns="http://www.w3.org/2000/svg">
<path d="M9.9 26.8188V27.7896L10.7683 27.3554C11.1301 27.1745 11.5024 27.0464 11.8864 26.9696C12.2834 26.8902 12.696 26.85 13.125 26.85H14H14.6V26.25V7V6.4H14H13.125C12.2385 6.4 11.4656 6.71714 10.8414 7.34136C10.2171 7.96558 9.9 8.73852 9.9 9.625V26.8188ZM16.9 26.25V26.85H17.5H31.5H32.1V26.25V7V6.4H31.5H17.5H16.9V7V26.25ZM33.432 29.6446L33.4256 29.6476L33.4192 29.6508C32.9135 29.9037 32.5075 30.2711 32.214 30.748C31.916 31.2323 31.775 31.7811 31.775 32.375C31.775 32.9692 31.9161 33.5212 32.2088 34.0153C32.5049 34.5149 32.9221 34.8873 33.4511 35.114C33.7791 35.2545 34.0112 35.436 34.1727 35.648C34.3349 35.8608 34.4 36.0634 34.4 36.2687V36.7062C34.4 37.0513 34.2894 37.3244 34.0637 37.5599C33.8443 37.7888 33.5865 37.9 33.25 37.9H13.125C11.5924 37.9 10.3013 37.3653 9.21801 36.282C8.13474 35.1987 7.6 33.9076 7.6 32.375V9.625C7.6 8.09241 8.13474 6.80129 9.21801 5.71801C10.3013 4.63474 11.5924 4.1 13.125 4.1H31.5C32.3021 4.1 32.9738 4.3786 33.5476 4.95239C34.1214 5.52618 34.4 6.1979 34.4 7V28.9187C34.4 28.9689 34.3866 29.0336 34.2914 29.1289C34.1792 29.241 33.9166 29.4166 33.432 29.6446ZM29.4438 35.6H30.3537L29.9952 34.7636C29.8332 34.3856 29.7054 34.0019 29.6114 33.6123C29.5218 33.2414 29.475 32.8299 29.475 32.375C29.475 31.946 29.5152 31.5334 29.5946 31.1364C29.6714 30.7524 29.7995 30.3801 29.9804 30.0183L30.4146 29.15H29.4438H13.125C12.2164 29.15 11.4302 29.4626 10.8134 30.0976C10.2058 30.723 9.9 31.494 9.9 32.375C9.9 33.2782 10.2014 34.0624 10.8195 34.6805L11.2438 34.2563L10.8195 34.6805C11.4376 35.2986 12.2218 35.6 13.125 35.6H29.4438Z" fill="url(#paint0_linear_33_150)" stroke="black" stroke-width="1.2"/>
<defs>
<linearGradient id="paint0_linear_33_150" x1="21" y1="3.5" x2="21" y2="38.5" gradientUnits="userSpaceOnUse">
<stop stop-color="#EFC283"/>
<stop offset="1" stop-color="#9F670D"/>
</linearGradient>
</defs>
</svg>
