<svg width="310" height="300" viewBox="0 0 310 300" fill="none" xmlns="http://www.w3.org/2000/svg">
<path opacity="0.24" d="M71.1915 49.1781L65.6935 43.8356C60.1955 38.4931 51.3142 38.6301 45.9573 43.8356L45.8163 43.9726C40.3183 49.3151 40.3183 57.9452 45.8163 63.1507L51.3142 68.4931C56.8122 73.8356 65.5525 73.8356 71.0505 68.4931L71.1915 68.3562C76.6894 63.1507 76.6894 54.3836 71.1915 49.1781ZM28.3356 136.301H13.9563C6.20282 136.301 0 142.329 0 149.863V150C0 157.534 6.20282 163.562 13.9563 163.562H28.1946C36.0891 163.699 42.292 157.671 42.292 150.137V150C42.292 142.329 36.0891 136.301 28.3356 136.301ZM155.211 0H155.07C147.176 0 140.973 6.0274 140.973 13.5616V26.7123C140.973 34.2466 147.176 40.274 154.93 40.274H155.07C162.965 40.411 169.168 34.3836 169.168 26.8493V13.5616C169.168 6.0274 162.965 0 155.211 0ZM264.325 43.9726C258.827 38.6301 249.945 38.6301 244.447 43.8356L238.95 49.1781C233.452 54.5205 233.452 63.1507 238.95 68.3562L239.09 68.4931C244.588 73.8356 253.47 73.8356 258.827 68.4931L264.325 63.1507C269.823 57.8082 269.823 49.3151 264.325 43.9726ZM238.809 250.822L244.306 256.164C249.804 261.507 258.686 261.507 264.184 256.164C269.682 250.822 269.682 242.192 264.184 236.849L258.686 231.507C253.188 226.164 244.307 226.301 238.95 231.507C233.311 236.986 233.311 245.479 238.809 250.822ZM267.849 149.863V150C267.849 157.534 274.052 163.562 281.805 163.562H296.044C303.797 163.562 310 157.534 310 150V149.863C310 142.329 303.797 136.301 296.044 136.301H281.805C274.052 136.301 267.849 142.329 267.849 149.863ZM155.07 67.8082C108.408 67.8082 70.4866 104.658 70.4866 150C70.4866 195.342 108.408 232.192 155.07 232.192C201.733 232.192 239.654 195.342 239.654 150C239.654 104.658 201.733 67.8082 155.07 67.8082ZM154.93 300H155.07C162.824 300 169.027 293.973 169.027 286.438V273.288C169.027 265.753 162.824 259.726 155.07 259.726H154.93C147.176 259.726 140.973 265.753 140.973 273.288V286.438C140.973 293.973 147.176 300 154.93 300ZM45.8163 256.027C51.3142 261.37 60.1955 261.37 65.6935 256.027L71.1915 250.685C76.6894 245.342 76.5484 236.712 71.1915 231.507L71.0505 231.37C65.5525 226.027 56.6712 226.027 51.1733 231.37L45.6753 236.712C40.3183 242.192 40.3183 250.685 45.8163 256.027Z" fill="url(#paint0_linear_528_7)"/>
<defs>
<linearGradient id="paint0_linear_528_7" x1="155" y1="0" x2="155" y2="300" gradientUnits="userSpaceOnUse">
<stop stop-color="#E6E631"/>
<stop offset="1" stop-color="#FF9D00"/>
</linearGradient>
</defs>
</svg>
