<svg width="42" height="42" viewBox="0 0 42 42" fill="none" xmlns="http://www.w3.org/2000/svg">
<g clip-path="url(#clip0_25_32)">
<path d="M10.1632 7.66929L10.1632 7.66932L10.1688 7.67476C10.6096 8.10425 10.6096 8.8358 10.1688 9.26529L10.1687 9.26525L10.1632 9.27077L10.1457 9.28826C10.1457 9.28826 10.1457 9.28827 10.1457 9.28827C9.69754 9.73645 8.99245 9.73644 8.54426 9.28826L7.86176 8.60576L7.8618 8.60572L7.85622 8.60029C7.41852 8.17381 7.41049 7.45556 7.86176 7.00429L7.87926 6.98679L7.87926 6.98679C8.3139 6.55215 9.03648 6.54253 9.48074 6.98679L10.1632 7.66929ZM5.26071 21.2576L5.26071 21.2575H5.25H3.4825C2.85137 21.2575 2.35 20.7562 2.35 20.125V20.1075C2.35 19.4764 2.85137 18.975 3.4825 18.975H5.2675C5.89469 18.975 6.4 19.4724 6.4 20.125V20.1425C6.4 20.7717 5.903 21.2691 5.26071 21.2576ZM21.0107 5.50762L21.0107 5.50752H21H20.9825C20.3514 5.50752 19.85 5.00616 19.85 4.37502V2.69502C19.85 2.06783 20.3474 1.56252 21 1.56252H21.0175C21.6486 1.56252 22.15 2.0639 22.15 2.69502V4.39252C22.15 5.02167 21.653 5.51909 21.0107 5.50762ZM31.8368 9.27082L31.8369 9.27078L31.8312 9.26529C31.3935 8.83881 31.3855 8.12056 31.8368 7.66929L32.5163 6.98979C32.9651 6.55515 33.69 6.55607 34.1382 7.00429C34.5864 7.45247 34.5864 8.15758 34.1382 8.60576L33.4557 9.28826L33.4557 9.28823L33.4503 9.29381C33.0238 9.73149 32.3056 9.73954 31.8543 9.28832C31.8543 9.2883 31.8543 9.28828 31.8543 9.28826L31.8368 9.27082ZM32.5018 33.2633L31.8193 32.5808C31.375 32.1365 31.3671 31.4314 31.8368 30.9618C32.2714 30.5272 32.994 30.5175 33.4382 30.9618L34.1207 31.6443C34.5689 32.0925 34.5689 32.8151 34.1207 33.2633C33.6726 33.7114 32.95 33.7115 32.5018 33.2633ZM35.6 20.125V20.1075C35.6 19.4764 36.1014 18.975 36.7325 18.975H38.5C39.1311 18.975 39.6325 19.4764 39.6325 20.1075V20.125C39.6325 20.7562 39.1311 21.2575 38.5 21.2575H36.7325C36.1014 21.2575 35.6 20.7562 35.6 20.125ZM11.1 20.125C11.1 14.6639 15.5389 10.225 21 10.225C26.4611 10.225 30.9 14.6639 30.9 20.125C30.9 25.5862 26.4611 30.025 21 30.025C15.5389 30.025 11.1 25.5862 11.1 20.125ZM21 38.6875H20.9825C20.3514 38.6875 19.85 38.1862 19.85 37.555V35.875C19.85 35.2439 20.3514 34.7425 20.9825 34.7425H21C21.6311 34.7425 22.1325 35.2439 22.1325 35.875V37.555C22.1325 38.1862 21.6311 38.6875 21 38.6875ZM9.48074 33.2458C9.03255 33.694 8.30995 33.694 7.86176 33.2458C7.41715 32.8011 7.40807 32.0914 7.85022 31.6208L8.52676 30.9443L8.1025 30.52L8.52676 30.9443C8.97495 30.4961 9.69755 30.4961 10.1457 30.9443L10.1632 30.9618C10.5979 31.3964 10.6075 32.119 10.1632 32.5633L9.48074 33.2458Z" fill="url(#paint0_linear_25_32)" stroke="#333333" stroke-width="1.2"/>
</g>
<defs>
<linearGradient id="paint0_linear_25_32" x1="20.9913" y1="0.962524" x2="20.9913" y2="39.2875" gradientUnits="userSpaceOnUse">
<stop stop-color="#E6E631"/>
<stop offset="1" stop-color="#FF9D00"/>
</linearGradient>
<clipPath id="clip0_25_32">
<rect width="42" height="42" fill="white"/>
</clipPath>
</defs>
</svg>
