<svg width="42" height="42" viewBox="0 0 42 42" fill="none" xmlns="http://www.w3.org/2000/svg">
<g clip-path="url(#clip0_25_46)">
<path d="M13.5493 33.6743L14.5735 32.65H13.125C10.0789 32.65 7.6 30.1711 7.6 27.125V10.5C7.6 9.09201 7.99882 8.02612 8.669 7.20037C9.34691 6.36509 10.3374 5.73302 11.5857 5.26492C14.0997 4.32218 17.5024 4.1 21 4.1C24.4976 4.1 27.9003 4.32218 30.4143 5.26492C31.6626 5.73302 32.6531 6.36509 33.331 7.20037C34.0012 8.02612 34.4 9.09201 34.4 10.5V27.125C34.4 30.1711 31.9211 32.65 28.875 32.65H27.4354L28.4489 33.6724L30.4439 35.6849L30.4438 35.685L30.4525 35.6934C30.6186 35.8543 30.5152 36.15 30.2575 36.15H28.35C28.2983 36.15 28.2191 36.1206 28.1618 36.0632L24.9243 32.8257L24.7485 32.65H24.5H17.5H17.2515L17.0757 32.8257L13.8382 36.0632L13.8271 36.0744L13.8165 36.0861C13.7866 36.1194 13.7292 36.15 13.65 36.15H11.7425C11.4841 36.15 11.3761 35.8474 11.5368 35.6868L13.5493 33.6743ZM19.25 18.1H19.85V17.5V10.5V9.9H19.25H10.5H9.9V10.5V17.5V18.1H10.5H19.25ZM31.5 18.1H32.1V17.5V10.5V9.9H31.5H22.75H22.15V10.5V17.5V18.1H22.75H31.5ZM9.9 27.125C9.9 28.9089 11.3411 30.35 13.125 30.35C14.9089 30.35 16.35 28.9089 16.35 27.125C16.35 25.3411 14.9089 23.9 13.125 23.9C11.3411 23.9 9.9 25.3411 9.9 27.125ZM25.65 27.125C25.65 28.9089 27.0911 30.35 28.875 30.35C30.6589 30.35 32.1 28.9089 32.1 27.125C32.1 25.3411 30.6589 23.9 28.875 23.9C27.0911 23.9 25.65 25.3411 25.65 27.125Z" fill="url(#paint0_linear_25_46)" stroke="#333333" stroke-width="1.2"/>
</g>
<defs>
<linearGradient id="paint0_linear_25_46" x1="21" y1="3.5" x2="21" y2="36.75" gradientUnits="userSpaceOnUse">
<stop stop-color="#727272"/>
<stop offset="1" stop-color="#00D9FF"/>
</linearGradient>
<clipPath id="clip0_25_46">
<rect width="42" height="42" fill="white"/>
</clipPath>
</defs>
</svg>
