<svg width="252" height="300" viewBox="0 0 252 300" fill="none" xmlns="http://www.w3.org/2000/svg">
<path opacity="0.24" d="M126 0C63 0 0 7.89474 0 63.1579V213.158C0 243.632 24.7275 268.421 55.125 268.421L37.0125 286.579C32.13 291.474 35.595 300 42.6825 300H59.85C61.8975 300 63.945 299.211 65.3625 297.632L94.5 268.421H157.5L186.638 297.632C188.055 299.053 190.103 300 192.15 300H209.318C216.405 300 219.87 291.474 214.83 286.579L196.875 268.421C227.272 268.421 252 243.632 252 213.158V63.1579C252 7.89474 189 0 126 0ZM55.125 236.842C42.0525 236.842 31.5 226.263 31.5 213.158C31.5 200.053 42.0525 189.474 55.125 189.474C68.1975 189.474 78.75 200.053 78.75 213.158C78.75 226.263 68.1975 236.842 55.125 236.842ZM110.25 126.316H31.5V63.1579H110.25V126.316ZM196.875 236.842C183.803 236.842 173.25 226.263 173.25 213.158C173.25 200.053 183.803 189.474 196.875 189.474C209.947 189.474 220.5 200.053 220.5 213.158C220.5 226.263 209.947 236.842 196.875 236.842ZM220.5 126.316H141.75V63.1579H220.5V126.316Z" fill="url(#paint0_linear_499_83)"/>
<defs>
<linearGradient id="paint0_linear_499_83" x1="126" y1="0" x2="126" y2="300" gradientUnits="userSpaceOnUse">
<stop stop-color="#727272"/>
<stop offset="1" stop-color="#00D9FF"/>
</linearGradient>
</defs>
</svg>
